<svg width="28" height="28" viewBox="0 0 28 28" fill="none" xmlns="http://www.w3.org/2000/svg">
<path d="M26.7214 9.19286C26.0464 7.58214 25.0679 6.13571 23.8214 4.88571C22.5884 3.64931 21.1268 2.66438 19.5179 1.98571C17.8517 1.27928 16.0598 0.917254 14.25 0.921429C12.7536 0.921429 11.2893 1.16071 9.89644 1.63571C6.64287 0.117857 2.88573 0 1.80715 0C1.72858 0 1.54287 -1.09098e-07 1.47144 0.00714275C1.04644 0.0214285 0.657155 0.239286 0.428583 0.592857C0.19644 0.946429 0.153583 1.39286 0.307155 1.78929L2.60358 7.56072C1.36699 9.64973 0.715629 12.0331 0.717869 14.4607C0.717869 16.2964 1.07501 18.0679 1.78215 19.7321C2.45715 21.3393 3.43215 22.7893 4.68215 24.0357C5.92144 25.2786 7.37501 26.2536 8.98573 26.9357C10.6536 27.6429 12.425 28 14.25 28C16.0822 28 17.8536 27.6393 19.525 26.9357C21.1286 26.2607 22.5786 25.2821 23.825 24.0357C25.0643 22.7929 26.0429 21.3429 26.725 19.7286C27.4311 18.061 27.7931 16.268 27.7893 14.4571C27.7822 12.6286 27.4286 10.8571 26.7214 9.19286ZM24.35 18.7107C23.7993 20.0187 23 21.2073 21.9964 22.2107C20.9822 23.2286 19.8072 24.0214 18.5072 24.5643H18.5036C17.1464 25.1357 15.7072 25.4286 14.2214 25.4286C12.7782 25.4302 11.349 25.1464 10.0158 24.5935C8.68272 24.0407 7.47208 23.2296 6.45358 22.2071C5.4393 21.1893 4.64644 20.0143 4.10358 18.7143V18.7107C3.53215 17.3607 3.24287 15.9179 3.24287 14.4286C3.24287 12.45 3.77144 10.5107 4.77144 8.82143L5.24287 8.03214L4.90358 7.17857L3.07144 2.57143C3.60358 2.59286 4.35358 2.64643 5.20358 2.77143C6.76787 3.00357 8.15001 3.39643 9.30716 3.93571L9.98573 4.25357L10.6964 4.01071C11.8214 3.625 13.0107 3.43214 14.2286 3.43214C15.6718 3.43054 17.1011 3.71434 18.4342 4.2672C19.7673 4.82006 20.9779 5.63107 21.9964 6.65357C23.0107 7.67143 23.8036 8.84643 24.3464 10.1464L24.35 10.15L24.3536 10.1536C24.925 11.4964 25.2143 12.9393 25.2179 14.4321C25.2143 15.9214 24.9214 17.3607 24.35 18.7107ZM20.0393 8.72143C19.3107 8.72143 18.7143 9.31786 18.7143 10.0464V12.0143C18.7143 12.7429 19.3072 13.3393 20.0393 13.3393C20.7714 13.3393 21.3643 12.7429 21.3643 12.0143V10.0464C21.3643 9.31429 20.7679 8.72143 20.0393 8.72143ZM13.7822 8.72143C13.05 8.72143 12.4572 9.31786 12.4572 10.0464V12.0143C12.4572 12.7429 13.0536 13.3393 13.7822 13.3393C14.5143 13.3393 15.1072 12.7429 15.1072 12.0143V10.0464C15.1072 9.31429 14.5107 8.72143 13.7822 8.72143Z" fill="black"/>
</svg>
