<svg width="30" height="28" viewBox="0 0 30 28" fill="none" xmlns="http://www.w3.org/2000/svg">
<path d="M28.8429 5.58928L21.8929 9.87142L15.2286 0.982136C15.2018 0.946358 15.167 0.917317 15.127 0.897314C15.087 0.877312 15.0429 0.866898 14.9982 0.866898C14.9535 0.866898 14.9094 0.877312 14.8694 0.897314C14.8294 0.917317 14.7947 0.946358 14.7679 0.982136L8.10714 9.87142L1.15357 5.58928C0.949996 5.46428 0.685711 5.63214 0.717853 5.87142L3.44642 26.6071C3.48571 26.8893 3.72857 27.1071 4.01785 27.1071H25.9857C26.2714 27.1071 26.5179 26.8929 26.5536 26.6071L29.2821 5.87142C29.3107 5.63214 29.05 5.46428 28.8429 5.58928ZM24.3429 24.6643H5.65357L3.73214 10.0429L8.725 13.1179L15 4.74642L21.275 13.1179L26.2679 10.0429L24.3429 24.6643ZM15 13.8929C12.7821 13.8929 10.9786 15.6964 10.9786 17.9143C10.9786 20.1321 12.7821 21.9357 15 21.9357C17.2179 21.9357 19.0214 20.1321 19.0214 17.9143C19.0214 15.6964 17.2179 13.8929 15 13.8929ZM15 19.6393C14.05 19.6393 13.2786 18.8679 13.2786 17.9143C13.2786 16.9643 14.05 16.1893 15 16.1893C15.95 16.1893 16.7214 16.9607 16.7214 17.9143C16.7214 18.8643 15.95 19.6393 15 19.6393Z" fill="black"/>
</svg>
