<svg width="26" height="32" viewBox="0 0 26 32" fill="none" xmlns="http://www.w3.org/2000/svg">
<path d="M24.075 14.4607C23.3817 12.9002 22.3737 11.4995 21.1143 10.3464L20.075 9.39282C20.0397 9.36133 19.9972 9.33898 19.9513 9.32774C19.9054 9.31649 19.8574 9.3167 19.8115 9.32834C19.7657 9.33997 19.7234 9.36268 19.6884 9.39447C19.6534 9.42627 19.6267 9.46617 19.6107 9.51067L19.1464 10.8428C18.8571 11.6785 18.325 12.5321 17.5714 13.3714C17.5214 13.425 17.4643 13.4392 17.425 13.4428C17.3857 13.4464 17.325 13.4392 17.2714 13.3892C17.2214 13.3464 17.1964 13.2821 17.2 13.2178C17.3321 11.0678 16.6893 8.64281 15.2821 6.00353C14.1179 3.81067 12.5 2.09996 10.4786 0.9071L9.00357 0.0392434C8.81071 -0.0750423 8.56429 0.0749575 8.575 0.299958L8.65357 2.01424C8.70714 3.18567 8.57143 4.22139 8.25 5.0821C7.85714 6.13567 7.29286 7.11424 6.57143 7.99282C6.06937 8.6034 5.50033 9.15567 4.875 9.63924C3.36895 10.797 2.14433 12.2804 1.29286 13.9785C0.443478 15.6914 0.00103629 17.5773 0 19.4892C0 21.175 0.332143 22.8071 0.989286 24.3464C1.62381 25.8284 2.5395 27.1734 3.68571 28.3071C4.84286 29.45 6.18571 30.35 7.68214 30.975C9.23214 31.625 10.875 31.9535 12.5714 31.9535C14.2679 31.9535 15.9107 31.625 17.4607 30.9785C18.9535 30.3572 20.3109 29.451 21.4571 28.3107C22.6143 27.1678 23.5214 25.8321 24.1536 24.35C24.8097 22.8149 25.1463 21.1622 25.1429 19.4928C25.1429 17.75 24.7857 16.0571 24.075 14.4607ZM19.75 26.5785C17.8321 28.4785 15.2857 29.5214 12.5714 29.5214C9.85714 29.5214 7.31071 28.4785 5.39286 26.5785C3.48214 24.6821 2.42857 22.1678 2.42857 19.4928C2.42857 17.9392 2.77857 16.45 3.46786 15.0642C4.13929 13.7107 5.13929 12.5 6.35357 11.5678C7.12799 10.9756 7.8304 10.2948 8.44643 9.53924C9.33929 8.44996 10.0393 7.23567 10.525 5.9321C10.7242 5.39438 10.869 4.83802 10.9571 4.27139C11.8179 5.06424 12.5393 6.02139 13.1429 7.14281C14.3357 9.37853 14.8857 11.3678 14.7786 13.0607C14.753 13.4594 14.8181 13.8587 14.969 14.2286C15.12 14.5985 15.3528 14.9294 15.65 15.1964C15.9076 15.4291 16.2088 15.6082 16.5362 15.7235C16.8636 15.8387 17.2106 15.8878 17.5571 15.8678C18.2607 15.8321 18.9071 15.5214 19.3786 14.9964C19.8536 14.4642 20.2643 13.9214 20.6071 13.3678C21.1071 14.0071 21.525 14.7035 21.8571 15.4535C22.425 16.7321 22.7143 18.0928 22.7143 19.4928C22.7143 22.1678 21.6607 24.6857 19.75 26.5785Z" fill="black"/>
</svg>
