<svg width="33" height="31" viewBox="0 0 33 31" fill="none" xmlns="http://www.w3.org/2000/svg">
<path d="M31.7073 15.0447L17.9073 1.25188L16.9823 0.326876C16.7715 0.117506 16.4865 0 16.1894 0C15.8924 0 15.6073 0.117506 15.3966 0.326876L0.671577 15.0447C0.455616 15.2599 0.284939 15.5161 0.16962 15.7982C0.0543007 16.0804 -0.00332367 16.3828 0.000148035 16.6876C0.0144337 17.9447 1.06086 18.9483 2.31801 18.9483H3.83586V30.5804H28.543V18.9483H30.093C30.7037 18.9483 31.2787 18.709 31.7109 18.2769C31.9236 18.0648 32.0922 17.8126 32.2069 17.5349C32.3215 17.2571 32.3799 16.9595 32.3787 16.659C32.3787 16.0519 32.1394 15.4769 31.7073 15.0447ZM18.1894 28.009H14.1894V20.7233H18.1894V28.009ZM25.9716 16.3769V28.009H20.4751V19.8662C20.4751 19.0769 19.8359 18.4376 19.0466 18.4376H13.3323C12.543 18.4376 11.9037 19.0769 11.9037 19.8662V28.009H6.40729V16.3769H2.97872L16.193 3.1733L17.018 3.9983L29.4037 16.3769H25.9716Z" fill="black"/>
</svg>
