<svg width="32" height="32" viewBox="0 0 32 32" fill="none" xmlns="http://www.w3.org/2000/svg">
<path d="M8 12.75C8 13.2047 8.18061 13.6407 8.5021 13.9622C8.82359 14.2837 9.25963 14.4643 9.71429 14.4643C10.1689 14.4643 10.605 14.2837 10.9265 13.9622C11.248 13.6407 11.4286 13.2047 11.4286 12.75C11.4286 12.2953 11.248 11.8593 10.9265 11.5378C10.605 11.2163 10.1689 11.0357 9.71429 11.0357C9.25963 11.0357 8.82359 11.2163 8.5021 11.5378C8.18061 11.8593 8 12.2953 8 12.75ZM20.5714 12.75C20.5714 13.2047 20.752 13.6407 21.0735 13.9622C21.395 14.2837 21.8311 14.4643 22.2857 14.4643C22.7404 14.4643 23.1764 14.2837 23.4979 13.9622C23.8194 13.6407 24 13.2047 24 12.75C24 12.2953 23.8194 11.8593 23.4979 11.5378C23.1764 11.2163 22.7404 11.0357 22.2857 11.0357C21.8311 11.0357 21.395 11.2163 21.0735 11.5378C20.752 11.8593 20.5714 12.2953 20.5714 12.75ZM16 0C7.16429 0 0 7.16429 0 16C0 24.8357 7.16429 32 16 32C24.8357 32 32 24.8357 32 16C32 7.16429 24.8357 0 16 0ZM25.3929 25.3929C24.1714 26.6143 22.75 27.5714 21.1679 28.2429C19.5357 28.9357 17.7964 29.2857 16 29.2857C14.2036 29.2857 12.4643 28.9357 10.8286 28.2429C9.24883 27.5757 7.81387 26.6077 6.60357 25.3929C5.38214 24.1714 4.425 22.75 3.75357 21.1679C3.06429 19.5357 2.71429 17.7964 2.71429 16C2.71429 14.2036 3.06429 12.4643 3.75714 10.8286C4.42431 9.24883 5.39227 7.81387 6.60714 6.60357C7.82857 5.38214 9.25 4.425 10.8321 3.75357C12.4643 3.06429 14.2036 2.71429 16 2.71429C17.7964 2.71429 19.5357 3.06429 21.1714 3.75714C22.7512 4.42431 24.1861 5.39227 25.3964 6.60714C26.6179 7.82857 27.575 9.25 28.2464 10.8321C28.9357 12.4643 29.2857 14.2036 29.2857 16C29.2857 17.7964 28.9357 19.5357 28.2429 21.1714C27.5765 22.7506 26.6084 24.1845 25.3929 25.3929ZM21.4286 16.75H19.7107C19.5607 16.75 19.4321 16.8643 19.4214 17.0143C19.2857 18.7821 17.8036 20.1786 16 20.1786C14.1964 20.1786 12.7107 18.7821 12.5786 17.0143C12.5679 16.8643 12.4393 16.75 12.2893 16.75H10.5714C10.5327 16.75 10.4943 16.7578 10.4587 16.773C10.4231 16.7883 10.3909 16.8106 10.3642 16.8387C10.3374 16.8667 10.3167 16.8999 10.3032 16.9363C10.2897 16.9726 10.2838 17.0113 10.2857 17.05C10.4429 20.0607 12.9464 22.4643 16 22.4643C19.0536 22.4643 21.5571 20.0607 21.7143 17.05C21.7162 17.0113 21.7103 16.9726 21.6968 16.9363C21.6833 16.8999 21.6626 16.8667 21.6358 16.8387C21.6091 16.8106 21.5769 16.7883 21.5413 16.773C21.5057 16.7578 21.4673 16.75 21.4286 16.75Z" fill="black"/>
</svg>
